<?xml version="1.0" encoding="UTF-8" standalone="no"?>
<!DOCTYPE svg PUBLIC "-//W3C//DTD SVG 1.1//EN" "http://www.w3.org/Graphics/SVG/1.1/DTD/svg11.dtd">
<svg xmlns="http://www.w3.org/2000/svg" version="1.1" xmlns:xl="http://www.w3.org/1999/xlink" xmlns:dc="http://purl.org/dc/elements/1.1/" viewBox="7.937054 9.383158 820.0629 571.7192" width="820.0629" height="571.7192">
  <defs>
    <marker orient="auto" overflow="visible" markerUnits="strokeWidth" id="FilledArrow_Marker" stroke-linejoin="miter" stroke-miterlimit="10" viewBox="-1 -3 6 6" markerWidth="6" markerHeight="6" color="#1067b2">
      <g>
        <path d="M 3.6 0 L 0 -1.35 L 0 1.35 Z" fill="currentColor" stroke="currentColor" stroke-width="1"/>
      </g>
    </marker>
    <marker orient="auto" overflow="visible" markerUnits="strokeWidth" id="FilledArrow_Marker_2" stroke-linejoin="miter" stroke-miterlimit="10" viewBox="-1 -3 6 6" markerWidth="6" markerHeight="6" color="#b31f19">
      <g>
        <path d="M 3.6 0 L 0 -1.35 L 0 1.35 Z" fill="currentColor" stroke="currentColor" stroke-width="1"/>
      </g>
    </marker>
    <marker orient="auto" overflow="visible" markerUnits="strokeWidth" id="FilledArrow_Marker_3" stroke-linejoin="miter" stroke-miterlimit="10" viewBox="-1 -3 6 6" markerWidth="6" markerHeight="6" color="#b26813">
      <g>
        <path d="M 3.6 0 L 0 -1.35 L 0 1.35 Z" fill="currentColor" stroke="currentColor" stroke-width="1"/>
      </g>
    </marker>
    <marker orient="auto" overflow="visible" markerUnits="strokeWidth" id="FilledArrow_Marker_4" stroke-linejoin="miter" stroke-miterlimit="10" viewBox="-5 -3 6 6" markerWidth="6" markerHeight="6" color="#b26813">
      <g>
        <path d="M -3.6 0 L 0 1.35 L 0 -1.35 Z" fill="currentColor" stroke="currentColor" stroke-width="1"/>
      </g>
    </marker>
    <marker orient="auto" overflow="visible" markerUnits="strokeWidth" id="FilledArrow_Marker_5" stroke-linejoin="miter" stroke-miterlimit="10" viewBox="-1 -3 6 6" markerWidth="6" markerHeight="6" color="black">
      <g>
        <path d="M 3.6 0 L 0 -1.35 L 0 1.35 Z" fill="currentColor" stroke="currentColor" stroke-width="1"/>
      </g>
    </marker>
  </defs>
  <g id="Canvas_1" fill="none" stroke-dasharray="none" stroke-opacity="1" stroke="none" fill-opacity="1">
    <title>Canvas 1</title>
    <rect fill="white" x="7.937054" y="9.383158" width="820.0629" height="571.7192"/>
    <g id="Canvas_1_Content">
      <title>Content</title>
      <g id="Graphic_882">
        <path d="M 105.48036 70.86614 L 730.17325 70.86614 C 732.3824 70.86614 734.17325 72.657 734.17325 74.86614 L 734.17325 514.7402 C 734.17325 516.9493 732.3824 518.7402 730.17325 518.7402 L 105.48036 518.7402 C 103.27122 518.7402 101.48036 516.9493 101.48036 514.7402 L 101.48036 74.86614 C 101.48036 72.657 103.27122 70.86614 105.48036 70.86614 Z M 17.889763 56.692915 Z M 17.889763 56.692915 L 11.937054 56.692915 C 9.727915 56.692915 7.937054 58.483776 7.937054 60.692915 L 7.937054 577.1024 C 7.937054 579.3115 9.727915 581.1024 11.937054 581.1024 L 17.889763 581.1024 L 48.50394 581.1024 L 824 581.1024 C 826.2091 581.1024 828 579.3115 828 577.1024 L 828 60.692915 C 828 58.483776 826.2091 56.692915 824 56.692915 L 48.50394 56.692915 Z" fill="#dbdbdb"/>
      </g>
      <g id="Graphic_799">
        <path d="M 112.31496 325.98426 L 724.7874 325.98426 C 726.9966 325.98426 728.7874 327.77512 728.7874 329.98426 L 728.7874 509.0709 C 728.7874 511.28 726.9966 513.0709 724.7874 513.0709 L 112.31496 513.0709 C 110.10583 513.0709 108.31496 511.28 108.31496 509.0709 L 108.31496 329.98426 C 108.31496 327.77512 110.10583 325.98426 112.31496 325.98426 Z" fill="#f5dbc1"/>
      </g>
      <g id="Graphic_798">
        <path d="M 112.31496 79.37008 L 724.7874 79.37008 C 726.9966 79.37008 728.7874 81.16094 728.7874 83.37008 L 728.7874 316.31497 C 728.7874 318.5241 726.9966 320.31497 724.7874 320.31497 L 112.31496 320.31497 C 110.10583 320.31497 108.31496 318.5241 108.31496 316.31497 L 108.31496 83.37008 C 108.31496 81.16094 110.10583 79.37008 112.31496 79.37008 Z" fill="#c0dbf5"/>
      </g>
      <g id="Group_774">
        <g id="Graphic_629">
          <path d="M 227.2126 212.59843 L 305.6378 212.59843 C 316.6835 212.59843 325.6378 221.55274 325.6378 232.59843 L 325.6378 237.95276 C 325.6378 248.99846 316.6835 257.95276 305.6378 257.95276 L 227.2126 257.95276 C 216.1669 257.95276 207.2126 248.99846 207.2126 237.95276 L 207.2126 232.59843 C 207.2126 221.55274 216.1669 212.59843 227.2126 212.59843 Z" fill="#929292"/>
        </g>
        <g id="Graphic_624">
          <rect x="235.55906" y="218.26772" width="61.92" height="29.200006" fill="#929292"/>
          <text transform="translate(240.55906 223.26772)" fill="white">
            <tspan font-family="Myriad Pro" font-size="16" fill="white" x="0" y="12" xml:space="preserve">SKETCH</tspan>
          </text>
        </g>
      </g>
      <g id="Group_767">
        <g id="Graphic_631">
          <path d="M 367.74804 90.70866 L 478.17324 90.70866 C 480.3824 90.70866 482.17324 92.49952 482.17324 94.70866 L 482.17324 132.063 C 482.17324 134.27213 480.3824 136.063 478.17324 136.063 L 367.74804 136.063 C 365.5389 136.063 363.74804 134.27213 363.74804 132.063 L 363.74804 94.70866 C 363.74804 92.49952 365.5389 90.70866 367.74804 90.70866 Z" fill="#368ddf"/>
        </g>
        <g id="Graphic_628">
          <text transform="translate(399.6032 107.04725)" fill="white">
            <tspan font-family="Myriad Pro" font-weight="bold" font-size="16" fill="white" x="61106675e-20" y="12" xml:space="preserve">analyse</tspan>
          </text>
        </g>
      </g>
      <g id="Line_639">
        <path d="M 363.74804 110.55118 L 161.85827 110.55118 L 161.85827 235.2756 L 196.7126 235.2756" marker-end="url(#FilledArrow_Marker)" stroke="#1067b2" stroke-linecap="round" stroke-linejoin="round" stroke-width="2"/>
      </g>
      <g id="Group_777">
        <g id="Graphic_725">
          <path d="M 539.02364 394.01576 L 617.44884 394.01576 C 628.4945 394.01576 637.4488 402.97006 637.4488 414.01576 L 637.4488 419.3701 C 637.4488 430.4158 628.4945 439.3701 617.44884 439.3701 L 539.02364 439.3701 C 527.97794 439.3701 519.02364 430.4158 519.02364 419.3701 L 519.02364 414.01576 C 519.02364 402.97006 527.97794 394.01576 539.02364 394.01576 Z" fill="#494949"/>
        </g>
        <g id="Graphic_726">
          <text transform="translate(546.7008 404.68505)" fill="white">
            <tspan font-family="Myriad Pro" font-size="16" fill="white" x="682121e-18" y="12" xml:space="preserve">ARTIFACT</tspan>
          </text>
        </g>
      </g>
      <g id="Group_768">
        <g id="Graphic_728">
          <path d="M 367.74804 157.62836 L 478.17324 157.62836 C 480.3824 157.62836 482.17324 159.41922 482.17324 161.62836 L 482.17324 198.98269 C 482.17324 201.19183 480.3824 202.98269 478.17324 202.98269 L 367.74804 202.98269 C 365.5389 202.98269 363.74804 201.19183 363.74804 198.98269 L 363.74804 161.62836 C 363.74804 159.41922 365.5389 157.62836 367.74804 157.62836 Z" fill="#1067b2"/>
        </g>
        <g id="Graphic_727">
          <text transform="translate(399.4331 173.96694)" fill="white">
            <tspan font-family="Myriad Pro" font-weight="bold" font-size="16" fill="white" x="63593575e-20" y="12" xml:space="preserve">resolve</tspan>
          </text>
        </g>
      </g>
      <g id="Line_729">
        <path d="M 325.4303 230.39038 L 340.44096 230.39038 L 340.44096 177.47088 L 352.61812 177.47088" marker-end="url(#FilledArrow_Marker)" stroke="#1067b2" stroke-linecap="round" stroke-linejoin="round" stroke-width="2"/>
      </g>
      <g id="Group_769">
        <g id="Graphic_731">
          <path d="M 367.74804 211.48662 L 478.17324 211.48662 C 480.3824 211.48662 482.17324 213.27749 482.17324 215.48662 L 482.17324 252.84096 C 482.17324 255.0501 480.3824 256.84096 478.17324 256.84096 L 367.74804 256.84096 C 365.5389 256.84096 363.74804 255.0501 363.74804 252.84096 L 363.74804 215.48662 C 363.74804 213.27749 365.5389 211.48662 367.74804 211.48662 Z" fill="#1067b2"/>
        </g>
        <g id="Graphic_730">
          <text transform="translate(396.9771 227.8252)" fill="white">
            <tspan font-family="Myriad Pro" font-weight="bold" font-size="16" fill="white" x="7744916e-19" y="12" xml:space="preserve">refactor</tspan>
          </text>
        </g>
      </g>
      <g id="Line_734">
        <line x1="325.6378" y1="235.2756" x2="355.45277" y2="235.2756" marker-end="url(#FilledArrow_Marker)" stroke="#1067b2" stroke-linecap="round" stroke-linejoin="round" stroke-width="2"/>
      </g>
      <g id="Line_735">
        <path d="M 326.26773 240.9449 L 340.44096 240.9449 L 340.44096 286.29922 L 355.45277 286.29922" marker-end="url(#FilledArrow_Marker)" stroke="#1067b2" stroke-linecap="round" stroke-linejoin="round" stroke-width="2"/>
      </g>
      <g id="Group_775">
        <g id="Graphic_737">
          <path d="M 539.02364 212.59843 L 617.44884 212.59843 C 628.4945 212.59843 637.4488 221.55274 637.4488 232.59843 L 637.4488 237.95276 C 637.4488 248.99846 628.4945 257.95276 617.44884 257.95276 L 539.02364 257.95276 C 527.97794 257.95276 519.02364 248.99846 519.02364 237.95276 L 519.02364 232.59843 C 519.02364 221.55274 527.97794 212.59843 539.02364 212.59843 Z" fill="#929292"/>
        </g>
        <g id="Graphic_736">
          <text transform="translate(535.3622 223.26772)" fill="white">
            <tspan font-family="Myriad Pro" font-size="16" fill="white" x="0" y="12" xml:space="preserve">APPROACHES</tspan>
          </text>
        </g>
      </g>
      <g id="Line_738">
        <path d="M 482.17324 177.47088 L 499.1811 177.47088 L 499.1811 230.39038 L 508.52364 230.39038" marker-end="url(#FilledArrow_Marker)" stroke="#1067b2" stroke-linecap="round" stroke-linejoin="round" stroke-width="2"/>
      </g>
      <g id="Line_739">
        <line x1="482.17324" y1="235.2756" x2="508.52364" y2="235.2756" marker-end="url(#FilledArrow_Marker)" stroke="#1067b2" stroke-linecap="round" stroke-linejoin="round" stroke-width="2"/>
      </g>
      <g id="Line_740">
        <path d="M 482.17324 286.29922 L 499.1811 286.29922 L 499.1811 240.9449 L 508.52364 240.9449" marker-end="url(#FilledArrow_Marker)" stroke="#1067b2" stroke-linecap="round" stroke-linejoin="round" stroke-width="2"/>
      </g>
      <g id="Group_776">
        <g id="Graphic_742">
          <path d="M 227.2126 391.1811 L 305.6378 391.1811 C 316.6835 391.1811 325.6378 400.1354 325.6378 411.1811 L 325.6378 416.53545 C 325.6378 427.58114 316.6835 436.53545 305.6378 436.53545 L 227.2126 436.53545 C 216.1669 436.53545 207.2126 427.58114 207.2126 416.53545 L 207.2126 411.1811 C 207.2126 400.1354 216.1669 391.1811 227.2126 391.1811 Z" fill="#494949"/>
        </g>
        <g id="Graphic_741">
          <text transform="translate(249.2817 401.8504)" fill="white">
            <tspan font-family="Myriad Pro" font-size="16" fill="white" x="0" y="12" xml:space="preserve">TASK</tspan>
          </text>
        </g>
      </g>
      <g id="Line_743">
        <path d="M 637.4488 235.2756 L 652.252 235.2756 L 652.252 323.90093 L 178.86615 323.90093 L 178.86615 408.189 L 196.7126 408.189" marker-end="url(#FilledArrow_Marker_2)" stroke="#b31f19" stroke-linecap="round" stroke-linejoin="round" stroke-width="2"/>
      </g>
      <g id="Group_771">
        <g id="Graphic_749">
          <path d="M 367.74804 340.94157 L 478.17324 340.94157 C 480.3824 340.94157 482.17324 342.73243 482.17324 344.94157 L 482.17324 382.2959 C 482.17324 384.50504 480.3824 386.2959 478.17324 386.2959 L 367.74804 386.2959 C 365.5389 386.2959 363.74804 384.50504 363.74804 382.2959 L 363.74804 344.94157 C 363.74804 342.73243 365.5389 340.94157 367.74804 340.94157 Z" fill="#df8f37"/>
        </g>
        <g id="Graphic_748">
          <text transform="translate(410.6971 357.28015)" fill="white">
            <tspan font-family="Myriad Pro" font-weight="bold" font-size="16" fill="white" x="0" y="12" xml:space="preserve">edit</tspan>
          </text>
        </g>
      </g>
      <g id="Group_772">
        <g id="Graphic_747">
          <path d="M 367.74804 394.79984 L 478.17324 394.79984 C 480.3824 394.79984 482.17324 396.5907 482.17324 398.79984 L 482.17324 436.15417 C 482.17324 438.3633 480.3824 440.15417 478.17324 440.15417 L 367.74804 440.15417 C 365.5389 440.15417 363.74804 438.3633 363.74804 436.15417 L 363.74804 398.79984 C 363.74804 396.5907 365.5389 394.79984 367.74804 394.79984 Z" fill="#b26813"/>
        </g>
        <g id="Graphic_746">
          <text transform="translate(386.3771 411.1384)" fill="white">
            <tspan font-family="Myriad Pro" font-weight="bold" font-size="16" fill="white" x="0" y="12" xml:space="preserve">implement</tspan>
          </text>
        </g>
      </g>
      <g id="Group_773">
        <g id="Graphic_745">
          <path d="M 367.74804 448.6581 L 478.17324 448.6581 C 480.3824 448.6581 482.17324 450.44897 482.17324 452.6581 L 482.17324 490.01244 C 482.17324 492.2216 480.3824 494.01244 478.17324 494.01244 L 367.74804 494.01244 C 365.5389 494.01244 363.74804 492.2216 363.74804 490.01244 L 363.74804 452.6581 C 363.74804 450.44897 365.5389 448.6581 367.74804 448.6581 Z" fill="#df8f37"/>
        </g>
        <g id="Graphic_744">
          <text transform="translate(394.2971 464.9967)" fill="white">
            <tspan font-family="Myriad Pro" font-weight="bold" font-size="16" fill="white" x="0" y="12" xml:space="preserve">preflight</tspan>
          </text>
        </g>
      </g>
      <g id="Line_755">
        <line x1="482.17324" y1="419.52757" x2="508.52364" y2="419.52757" marker-end="url(#FilledArrow_Marker_3)" stroke="#b26813" stroke-linecap="round" stroke-linejoin="round" stroke-width="2"/>
      </g>
      <g id="Line_756">
        <path d="M 637.4488 419.52757 L 660.7559 419.52757 L 660.7559 110.55118 L 492.67324 110.55118" marker-end="url(#FilledArrow_Marker)" stroke="#1067b2" stroke-linecap="round" stroke-linejoin="round" stroke-width="2"/>
      </g>
      <g id="Group_770">
        <g id="Graphic_733">
          <path d="M 367.74804 265.3449 L 478.17324 265.3449 C 480.3824 265.3449 482.17324 267.13575 482.17324 269.3449 L 482.17324 306.69923 C 482.17324 308.90836 480.3824 310.69923 478.17324 310.69923 L 367.74804 310.69923 C 365.5389 310.69923 363.74804 308.90836 363.74804 306.69923 L 363.74804 269.3449 C 363.74804 267.13575 365.5389 265.3449 367.74804 265.3449 Z" fill="#1067b2"/>
        </g>
        <g id="Graphic_758">
          <text transform="translate(407.28098 279.96064)" fill="white">
            <tspan font-family="Myriad Pro" font-weight="bold" font-size="16" fill="white" x="6430412e-19" y="12" xml:space="preserve">craft</tspan>
          </text>
        </g>
      </g>
      <g id="Line_761">
        <path d="M 363.1181 476.2205 L 161.85827 476.2205 L 161.85827 423.474 L 196.7126 423.474" marker-end="url(#FilledArrow_Marker_3)" stroke="#b26813" stroke-linecap="round" stroke-linejoin="round" stroke-width="2"/>
      </g>
      <g id="Line_763">
        <path d="M 196.7126 402.5197 L 190.20473 402.5197 L 190.20473 351.49607 L 363.1181 351.49607" marker-start="url(#FilledArrow_Marker_4)" stroke="#b26813" stroke-linecap="round" stroke-linejoin="round" stroke-width="2"/>
      </g>
      <g id="Line_780">
        <path d="M 326.26773 412.9195 L 341.2784 412.9195 L 341.2784 360 L 353.45556 360" marker-end="url(#FilledArrow_Marker_3)" stroke="#b26813" stroke-linecap="round" stroke-linejoin="round" stroke-width="2"/>
      </g>
      <g id="Line_779">
        <line x1="326.47524" y1="417.80473" x2="356.2902" y2="417.80473" marker-end="url(#FilledArrow_Marker_3)" stroke="#b26813" stroke-linecap="round" stroke-linejoin="round" stroke-width="2"/>
      </g>
      <g id="Line_778">
        <path d="M 325.4303 423.474 L 341.2784 423.474 L 341.2784 468.82836 L 356.2902 468.82836" marker-end="url(#FilledArrow_Marker_3)" stroke="#b26813" stroke-linecap="round" stroke-linejoin="round" stroke-width="2"/>
      </g>
      <g id="Graphic_781">
        <text transform="translate(229.94285 242.15276)" fill="white">
          <tspan font-family="Myriad Pro" font-size="9" fill="white" x="8668621e-19" y="7" xml:space="preserve">ephemeral (prompt)</tspan>
        </text>
      </g>
      <g id="Graphic_782">
        <text transform="translate(547.5769 242.15276)" fill="white">
          <tspan font-family="Myriad Pro" font-size="9" fill="white" x="55777605e-20" y="7" xml:space="preserve">ephemeral (plan)</tspan>
        </text>
      </g>
      <g id="Graphic_783">
        <text transform="translate(249.063 420.73544)" fill="white">
          <tspan font-family="Myriad Pro" font-size="9" fill="white" x="14566126e-20" y="7" xml:space="preserve">persistant</tspan>
        </text>
      </g>
      <g id="Graphic_784">
        <text transform="translate(560.874 424.52757)" fill="white">
          <tspan font-family="Myriad Pro" font-size="9" fill="white" x="14566126e-20" y="7" xml:space="preserve">persistant</tspan>
        </text>
      </g>
      <g id="Line_785">
        <path d="M 147.68504 323.1496 L 161.85827 323.1496 L 161.85827 240.9449 L 196.7126 240.9449" marker-end="url(#FilledArrow_Marker_5)" stroke="black" stroke-linecap="round" stroke-linejoin="round" stroke-width="2"/>
      </g>
      <g id="Graphic_786">
        <circle cx="136.34646" cy="323.1496" r="11.338601110497" fill="black"/>
        <circle cx="136.34646" cy="323.1496" r="11.338601110497" stroke="black" stroke-linecap="round" stroke-linejoin="round" stroke-width="1"/>
      </g>
      <g id="Line_788">
        <path d="M 637.4488 425.19686 L 669.2599 425.19686 L 669.2599 324.87245 L 681.437 324.87245" marker-end="url(#FilledArrow_Marker_5)" stroke="black" stroke-linecap="round" stroke-linejoin="round" stroke-width="2"/>
      </g>
      <g id="Group_791">
        <g id="Graphic_787">
          <circle cx="703.2756" cy="323.1496" r="11.3386011104969" stroke="black" stroke-linecap="round" stroke-linejoin="round" stroke-width="1"/>
        </g>
        <g id="Graphic_789">
          <circle cx="703.4208" cy="323.00444" r="7.08662569406063" fill="black"/>
          <circle cx="703.4208" cy="323.00444" r="7.08662569406063" stroke="black" stroke-linecap="round" stroke-linejoin="round" stroke-width="1"/>
        </g>
      </g>
      <g id="Line_790">
        <path d="M 147.68504 323.1496 L 161.85827 323.1496 L 161.85827 415.73544 L 196.7126 415.73544" marker-end="url(#FilledArrow_Marker_5)" stroke="black" stroke-linecap="round" stroke-linejoin="round" stroke-width="2"/>
      </g>
      <g id="Graphic_792">
        <text transform="translate(560.874 311.14174)" fill="#b31f19">
          <tspan font-family="Myriad Pro" font-size="9" fill="#b31f19" x="0" y="7" xml:space="preserve">single choice selection</tspan>
        </text>
      </g>
      <g id="Line_793">
        <line x1="619.5084" y1="238.06773" x2="626.4662" y2="238.06773" stroke="white" stroke-linecap="round" stroke-linejoin="round" stroke-width="1"/>
      </g>
      <g id="Line_794">
        <line x1="619.7389" y1="239.8607" x2="626.6967" y2="239.8607" stroke="white" stroke-linecap="round" stroke-linejoin="round" stroke-width="1"/>
      </g>
      <g id="Group_797">
        <g id="Graphic_796">
          <circle cx="306.4252" cy="405.35434" r="8.50395083287274" fill="white"/>
        </g>
        <g id="Graphic_795">
          <text transform="translate(302.70977 401.9346)" fill="black">
            <tspan font-family="Myriad Pro" font-size="9" fill="black" x="2184919e-19" y="7" xml:space="preserve">ID</tspan>
          </text>
        </g>
      </g>
      <g id="Graphic_800">
        <text transform="translate(124.33859 299.80316)" fill="black">
          <tspan font-family="Myriad Pro" font-size="9" fill="black" x="35171865e-20" y="7" xml:space="preserve">START</tspan>
        </text>
      </g>
      <g id="Graphic_801">
        <text transform="translate(694.2917 299.80316)" fill="black">
          <tspan font-family="Myriad Pro" font-size="9" fill="black" x="0" y="7" xml:space="preserve">END</tspan>
        </text>
      </g>
      <g id="Line_802">
        <path d="M 266.74017 436.53545 L 266.74017 469.7205 C 273.24017 469.7205 273.24017 482.7205 266.74017 482.7205 L 266.74017 500.6205 L 674.6987 498.89765 L 674.6987 339.7289" marker-end="url(#FilledArrow_Marker_5)" stroke="black" stroke-linecap="round" stroke-linejoin="round" stroke-width="2"/>
      </g>
      <g id="Graphic_803">
        <text transform="translate(115.83465 87.20473)" fill="#1067b2">
          <tspan font-family="Myriad Pro" font-size="12" fill="#1067b2" x="0" y="9" xml:space="preserve">SKETCHING</tspan>
        </text>
      </g>
      <g id="Graphic_804">
        <text transform="translate(115.83465 493.6709)" fill="#b26813">
          <tspan font-family="Myriad Pro" font-size="12" fill="#b26813" x="0" y="9" xml:space="preserve">SPECIFYING</tspan>
        </text>
      </g>
      <g id="Group_805">
        <g id="Graphic_807">
          <path d="M 18.173229 433.7008 L 92.0315 433.7008 C 94.24064 433.7008 96.0315 435.49166 96.0315 437.7008 L 96.0315 475.05513 C 96.0315 477.26427 94.24064 479.05513 92.0315 479.05513 L 18.173229 479.05513 C 15.96409 479.05513 14.173229 477.26427 14.173229 475.05513 L 14.173229 437.7008 C 14.173229 435.49166 15.96409 433.7008 18.173229 433.7008 Z" fill="#929292"/>
        </g>
        <g id="Graphic_806">
          <text transform="translate(27.341776 450.0394)" fill="white">
            <tspan font-family="Myriad Pro" font-weight="bold" font-size="16" fill="white" x="0" y="12" xml:space="preserve">discover</tspan>
          </text>
        </g>
      </g>
      <g id="Group_808">
        <g id="Graphic_810">
          <path d="M 745.6355 382.67718 L 817.0056 382.67718 C 819.2147 382.67718 821.0056 384.46804 821.0056 386.67718 L 821.0056 424.0315 C 821.0056 426.24065 819.2147 428.0315 817.0056 428.0315 L 745.6355 428.0315 C 743.4264 428.0315 741.6355 426.24065 741.6355 424.0315 L 741.6355 386.67718 C 741.6355 384.46804 743.4264 382.67718 745.6355 382.67718 Z" fill="#929292"/>
        </g>
        <g id="Graphic_809">
          <text transform="translate(750.5471 399.01576)" fill="white">
            <tspan font-family="Myriad Pro" font-weight="bold" font-size="16" fill="white" x="0" y="12" xml:space="preserve">changes</tspan>
          </text>
        </g>
      </g>
      <g id="Group_818">
        <g id="Graphic_820">
          <path d="M 745.6355 215.43308 L 817.0056 215.43308 C 819.2147 215.43308 821.0056 217.22394 821.0056 219.43308 L 821.0056 256.7874 C 821.0056 258.99655 819.2147 260.7874 817.0056 260.7874 L 745.6355 260.7874 C 743.4264 260.7874 741.6355 258.99655 741.6355 256.7874 L 741.6355 219.43308 C 741.6355 217.22394 743.4264 215.43308 745.6355 215.43308 Z" fill="#929292"/>
        </g>
        <g id="Graphic_819">
          <text transform="translate(754.9028 231.77166)" fill="white">
            <tspan font-family="Myriad Pro" font-weight="bold" font-size="16" fill="white" x="5115908e-19" y="12" xml:space="preserve">explain</tspan>
          </text>
        </g>
      </g>
      <g id="Group_821">
        <g id="Graphic_823">
          <path d="M 745.6355 164.40945 L 817.0056 164.40945 C 819.2147 164.40945 821.0056 166.20031 821.0056 168.40945 L 821.0056 205.76379 C 821.0056 207.97292 819.2147 209.76379 817.0056 209.76379 L 745.6355 209.76379 C 743.4264 209.76379 741.6355 207.97292 741.6355 205.76379 L 741.6355 168.40945 C 741.6355 166.20031 743.4264 164.40945 745.6355 164.40945 Z" fill="#929292"/>
        </g>
        <g id="Graphic_822">
          <text transform="translate(756.4068 180.74804)" fill="white">
            <tspan font-family="Myriad Pro" font-weight="bold" font-size="16" fill="white" x="0" y="12" xml:space="preserve">insight</tspan>
          </text>
        </g>
      </g>
      <g id="Group_827">
        <g id="Graphic_829">
          <path d="M 18.173229 215.43308 L 92.0315 215.43308 C 94.24064 215.43308 96.0315 217.22394 96.0315 219.43308 L 96.0315 256.7874 C 96.0315 258.99655 94.24064 260.7874 92.0315 260.7874 L 18.173229 260.7874 C 15.96409 260.7874 14.173229 258.99655 14.173229 256.7874 L 14.173229 219.43308 C 14.173229 217.22394 15.96409 215.43308 18.173229 215.43308 Z" fill="#929292"/>
        </g>
        <g id="Graphic_828">
          <text transform="translate(26.62869 231.77166)" fill="white">
            <tspan font-family="Myriad Pro" font-weight="bold" font-size="16" fill="white" x="0" y="12" xml:space="preserve">evaluate</tspan>
          </text>
        </g>
      </g>
      <g id="Group_830">
        <g id="Graphic_832">
          <path d="M 18.173229 266.4567 L 92.0315 266.4567 C 94.24064 266.4567 96.0315 268.24756 96.0315 270.4567 L 96.0315 307.81103 C 96.0315 310.02017 94.24064 311.81103 92.0315 311.81103 L 18.173229 311.81103 C 15.96409 311.81103 14.173229 310.02017 14.173229 307.81103 L 14.173229 270.4567 C 14.173229 268.24756 15.96409 266.4567 18.173229 266.4567 Z" fill="#929292"/>
        </g>
        <g id="Graphic_831">
          <text transform="translate(28.317573 282.7953)" fill="white">
            <tspan font-family="Myriad Pro" font-weight="bold" font-size="16" fill="white" x="6430412e-19" y="12" xml:space="preserve">quorum</tspan>
          </text>
        </g>
      </g>
      <g id="Group_833">
        <g id="Graphic_835">
          <path d="M 18.173229 382.67718 L 92.0315 382.67718 C 94.24064 382.67718 96.0315 384.46804 96.0315 386.67718 L 96.0315 424.0315 C 96.0315 426.24065 94.24064 428.0315 92.0315 428.0315 L 18.173229 428.0315 C 15.96409 428.0315 14.173229 426.24065 14.173229 424.0315 L 14.173229 386.67718 C 14.173229 384.46804 15.96409 382.67718 18.173229 382.67718 Z" fill="#929292"/>
        </g>
        <g id="Graphic_834">
          <text transform="translate(33.406734 399.01576)" fill="white">
            <tspan font-family="Myriad Pro" font-weight="bold" font-size="16" fill="white" x="0" y="12" xml:space="preserve">search</tspan>
          </text>
        </g>
      </g>
      <g id="Group_836">
        <g id="Graphic_838">
          <path d="M 18.173229 164.40945 L 92.0315 164.40945 C 94.24064 164.40945 96.0315 166.20031 96.0315 168.40945 L 96.0315 205.76379 C 96.0315 207.97292 94.24064 209.76379 92.0315 209.76379 L 18.173229 209.76379 C 15.96409 209.76379 14.173229 207.97292 14.173229 205.76379 L 14.173229 168.40945 C 14.173229 166.20031 15.96409 164.40945 18.173229 164.40945 Z" fill="#929292"/>
        </g>
        <g id="Graphic_837">
          <text transform="translate(40.942895 180.74804)" fill="white">
            <tspan font-family="Myriad Pro" font-weight="bold" font-size="16" fill="white" x="50803806e-20" y="12" xml:space="preserve">why</tspan>
          </text>
        </g>
      </g>
      <g id="Group_839">
        <g id="Graphic_841">
          <path d="M 18.173229 331.65355 L 92.0315 331.65355 C 94.24064 331.65355 96.0315 333.4444 96.0315 335.65355 L 96.0315 373.0079 C 96.0315 375.21702 94.24064 377.0079 92.0315 377.0079 L 18.173229 377.0079 C 15.96409 377.0079 14.173229 375.21702 14.173229 373.0079 L 14.173229 335.65355 C 14.173229 333.4444 15.96409 331.65355 18.173229 331.65355 Z" fill="#929292"/>
        </g>
        <g id="Graphic_840">
          <text transform="translate(40.42497 347.99214)" fill="white">
            <tspan font-family="Myriad Pro" font-weight="bold" font-size="16" fill="white" x="18829382e-20" y="12" xml:space="preserve">chat</tspan>
          </text>
        </g>
      </g>
      <g id="Group_842">
        <g id="Graphic_844">
          <path d="M 745.6355 331.65355 L 817.0056 331.65355 C 819.2147 331.65355 821.0056 333.4444 821.0056 335.65355 L 821.0056 373.0079 C 821.0056 375.21702 819.2147 377.0079 817.0056 377.0079 L 745.6355 377.0079 C 743.4264 377.0079 741.6355 375.21702 741.6355 373.0079 L 741.6355 335.65355 C 741.6355 333.4444 743.4264 331.65355 745.6355 331.65355 Z" fill="#929292"/>
        </g>
        <g id="Graphic_843">
          <text transform="translate(767.9551 347.99214)" fill="white">
            <tspan font-family="Myriad Pro" font-weight="bold" font-size="16" fill="white" x="31974423e-20" y="12" xml:space="preserve">lint</tspan>
          </text>
        </g>
      </g>
      <g id="Group_845">
        <g id="Graphic_847">
          <path d="M 346.99214 527.2441 L 418.3622 527.2441 C 420.57136 527.2441 422.3622 529.035 422.3622 531.2441 L 422.3622 568.59844 C 422.3622 570.8076 420.57136 572.59844 418.3622 572.59844 L 346.99214 572.59844 C 344.783 572.59844 342.99214 570.8076 342.99214 568.59844 L 342.99214 531.2441 C 342.99214 529.035 344.783 527.2441 346.99214 527.2441 Z" fill="#929292"/>
        </g>
        <g id="Graphic_846">
          <text transform="translate(354.6983 543.5827)" fill="white">
            <tspan font-family="Myriad Pro" font-weight="bold" font-size="16" fill="white" x="2344791e-19" y="12" xml:space="preserve">persona</tspan>
          </text>
        </g>
      </g>
      <g id="Group_848">
        <g id="Graphic_850">
          <path d="M 432.0315 527.2441 L 503.4016 527.2441 C 505.6107 527.2441 507.4016 529.035 507.4016 531.2441 L 507.4016 568.59844 C 507.4016 570.8076 505.6107 572.59844 503.4016 572.59844 L 432.0315 572.59844 C 429.82237 572.59844 428.0315 570.8076 428.0315 568.59844 L 428.0315 531.2441 C 428.0315 529.035 429.82237 527.2441 432.0315 527.2441 Z" fill="#929292"/>
        </g>
        <g id="Graphic_849">
          <text transform="translate(453.1236 543.5827)" fill="white">
            <tspan font-family="Myriad Pro" font-weight="bold" font-size="16" fill="white" x="6554757e-19" y="12" xml:space="preserve">task</tspan>
          </text>
        </g>
      </g>
      <g id="Group_866">
        <g id="Graphic_868">
          <path d="M 745.6355 266.4567 L 817.0056 266.4567 C 819.2147 266.4567 821.0056 268.24756 821.0056 270.4567 L 821.0056 307.81103 C 821.0056 310.02017 819.2147 311.81103 817.0056 311.81103 L 745.6355 311.81103 C 743.4264 311.81103 741.6355 310.02017 741.6355 307.81103 L 741.6355 270.4567 C 741.6355 268.24756 743.4264 266.4567 745.6355 266.4567 Z" fill="#929292"/>
        </g>
        <g id="Graphic_867">
          <text transform="translate(751.4068 282.7953)" fill="white">
            <tspan font-family="Myriad Pro" font-weight="bold" font-size="16" fill="white" x="0" y="12" xml:space="preserve">diagram</tspan>
          </text>
        </g>
      </g>
      <g id="Group_872">
        <g id="Graphic_874">
          <path d="M 745.6355 433.7008 L 817.0056 433.7008 C 819.2147 433.7008 821.0056 435.49166 821.0056 437.7008 L 821.0056 475.05513 C 821.0056 477.26427 819.2147 479.05513 817.0056 479.05513 L 745.6355 479.05513 C 743.4264 479.05513 741.6355 477.26427 741.6355 475.05513 L 741.6355 437.7008 C 741.6355 435.49166 743.4264 433.7008 745.6355 433.7008 Z" fill="#929292"/>
        </g>
        <g id="Graphic_873">
          <text transform="translate(753.8868 450.0394)" fill="white">
            <tspan font-family="Myriad Pro" font-weight="bold" font-size="16" fill="white" x="1314504e-19" y="12" xml:space="preserve">commit</tspan>
          </text>
        </g>
      </g>
      <g id="Graphic_883">
        <text transform="translate(13.503937 61.692915)" fill="#494949">
          <tspan font-family="Myriad Pro" font-size="12" fill="#494949" x="0" y="9" xml:space="preserve">STANDALONE</tspan>
        </text>
      </g>
    </g>
  </g>
</svg>
